<svg xmlns="http://www.w3.org/2000/svg" xmlns:xlink="http://www.w3.org/1999/xlink" width="500" zoomAndPan="magnify" viewBox="0 0 375 374.999991" height="500" preserveAspectRatio="xMidYMid meet" version="1.0"><defs><g/><clipPath id="id1"><path d="M 2.375 156.875 L 372.875 156.875 L 372.875 218.375 L 2.375 218.375 Z M 2.375 156.875 " clip-rule="nonzero"/></clipPath></defs><g fill="#000000" fill-opacity="1"><g transform="translate(51.115316, 288.34502)"><g><path d="M 50.148438 -169.289062 L 64.835938 -169.289062 C 74.925781 -169.289062 81.898438 -163.5 81.898438 -151.039062 L 81.898438 -53.859375 C 81.898438 -43.769531 75.519531 -36.054688 65.578125 -35.757812 L 50.148438 -35.757812 Z M 10.683594 -5.636719 C 10.683594 -2.078125 12.316406 0 15.726562 0 L 67.507812 0 C 97.773438 -0.296875 121.363281 -18.546875 121.363281 -52.671875 L 121.363281 -152.671875 C 121.363281 -186.644531 97.921875 -205.042969 67.210938 -205.339844 L 15.726562 -205.339844 C 12.609375 -205.339844 10.683594 -203.117188 10.683594 -199.554688 Z M 10.683594 -5.636719 "/></g></g></g><g fill="#000000" fill-opacity="1"><g transform="translate(195.091666, 288.34502)"><g><path d="M 50.148438 -169.289062 L 64.835938 -169.289062 C 74.925781 -169.289062 81.898438 -163.5 81.898438 -151.039062 L 81.898438 -53.859375 C 81.898438 -43.769531 75.519531 -36.054688 65.578125 -35.757812 L 50.148438 -35.757812 Z M 10.683594 -5.636719 C 10.683594 -2.078125 12.316406 0 15.726562 0 L 67.507812 0 C 97.773438 -0.296875 121.363281 -18.546875 121.363281 -52.671875 L 121.363281 -152.671875 C 121.363281 -186.644531 97.921875 -205.042969 67.210938 -205.339844 L 15.726562 -205.339844 C 12.609375 -205.339844 10.683594 -203.117188 10.683594 -199.554688 Z M 10.683594 -5.636719 "/></g></g></g><g clip-path="url(#id1)"><path fill="#ffffff" d="M 2.394531 156.875 L 372.851562 156.875 L 372.851562 218.375 L 2.394531 218.375 L 2.394531 156.875 " fill-opacity="1" fill-rule="nonzero"/></g><g fill="#000000" fill-opacity="1"><g transform="translate(123.503566, 197.185676)"><g><path d="M 4.511719 -15.230469 L 5.832031 -15.230469 C 6.742188 -15.230469 7.367188 -14.710938 7.367188 -13.589844 L 7.367188 -4.84375 C 7.367188 -3.9375 6.792969 -3.242188 5.898438 -3.21875 L 4.511719 -3.21875 Z M 0.960938 -0.507812 C 0.960938 -0.1875 1.109375 0 1.414062 0 L 6.074219 0 C 8.796875 -0.0273438 10.917969 -1.667969 10.917969 -4.738281 L 10.917969 -13.734375 C 10.917969 -16.792969 8.808594 -18.445312 6.046875 -18.472656 L 1.414062 -18.472656 C 1.132812 -18.472656 0.960938 -18.273438 0.960938 -17.953125 Z M 0.960938 -0.507812 "/></g></g></g><g fill="#000000" fill-opacity="1"><g transform="translate(149.170852, 197.185676)"><g><path d="M 4.511719 -3.21875 L 4.511719 -7.742188 L 8.410156 -7.742188 C 8.664062 -7.742188 8.835938 -7.875 8.835938 -8.195312 L 8.835938 -10.476562 C 8.835938 -10.8125 8.636719 -10.945312 8.410156 -10.945312 L 4.511719 -10.945312 L 4.511719 -15.230469 L 9.398438 -15.230469 C 9.636719 -15.230469 9.769531 -15.390625 9.769531 -15.710938 L 9.769531 -17.980469 C 9.769531 -18.3125 9.636719 -18.472656 9.398438 -18.472656 L 1.414062 -18.472656 C 1.132812 -18.472656 0.960938 -18.273438 0.960938 -17.953125 L 0.960938 -0.507812 C 0.960938 -0.1875 1.109375 0 1.414062 0 L 9.464844 0 C 9.675781 0 9.851562 -0.148438 9.851562 -0.46875 L 9.851562 -2.761719 C 9.851562 -3.070312 9.675781 -3.21875 9.464844 -3.21875 Z M 4.511719 -3.21875 "/></g></g></g><g fill="#000000" fill-opacity="1"><g transform="translate(173.410261, 197.185676)"><g><path d="M 5.207031 -7.316406 L 3.523438 -18.03125 C 3.484375 -18.339844 3.257812 -18.472656 2.988281 -18.472656 L 0.308594 -18.472656 C 0.0664062 -18.472656 -0.0117188 -18.273438 0.0546875 -17.953125 L 3.765625 -0.46875 C 3.84375 -0.148438 4.003906 0 4.285156 0 L 6.40625 0 C 6.675781 0 6.835938 -0.148438 6.914062 -0.46875 L 10.625 -17.980469 C 10.691406 -18.273438 10.625 -18.472656 10.371094 -18.472656 L 7.6875 -18.472656 C 7.433594 -18.472656 7.195312 -18.339844 7.15625 -18.03125 L 5.484375 -7.316406 L 5.339844 -5.753906 Z M 5.207031 -7.316406 "/></g></g></g><g fill="#000000" fill-opacity="1"><g transform="translate(198.18346, 197.185676)"><g/></g></g><g fill="#000000" fill-opacity="1"><g transform="translate(218.459473, 197.185676)"><g><path d="M 4.511719 -15.230469 L 5.832031 -15.230469 C 6.742188 -15.230469 7.367188 -14.710938 7.367188 -13.589844 L 7.367188 -4.84375 C 7.367188 -3.9375 6.792969 -3.242188 5.898438 -3.21875 L 4.511719 -3.21875 Z M 0.960938 -0.507812 C 0.960938 -0.1875 1.109375 0 1.414062 0 L 6.074219 0 C 8.796875 -0.0273438 10.917969 -1.667969 10.917969 -4.738281 L 10.917969 -13.734375 C 10.917969 -16.792969 8.808594 -18.445312 6.046875 -18.472656 L 1.414062 -18.472656 C 1.132812 -18.472656 0.960938 -18.273438 0.960938 -17.953125 Z M 0.960938 -0.507812 "/></g></g></g><g fill="#000000" fill-opacity="1"><g transform="translate(244.126756, 197.185676)"><g><path d="M 4.019531 -3.324219 L 4.269531 -3.789062 L 9.023438 -15.949219 C 9.050781 -16.003906 9.078125 -16.136719 9.078125 -16.257812 L 9.078125 -18.019531 C 9.078125 -18.328125 8.984375 -18.472656 8.703125 -18.472656 L 0.867188 -18.472656 C 0.667969 -18.472656 0.535156 -18.328125 0.535156 -18.03125 L 0.535156 -15.777344 C 0.535156 -15.484375 0.652344 -15.335938 0.867188 -15.335938 L 5.257812 -15.335938 L 5.058594 -14.921875 L 0.441406 -2.65625 C 0.386719 -2.550781 0.347656 -2.441406 0.332031 -2.28125 L 0.332031 -0.425781 C 0.332031 -0.132812 0.46875 0 0.679688 0 L 8.957031 0 C 9.15625 0 9.277344 -0.132812 9.277344 -0.425781 L 9.277344 -2.910156 C 9.277344 -3.191406 9.15625 -3.324219 8.957031 -3.324219 Z M 4.019531 -3.324219 "/></g></g></g><path stroke-linecap="butt" transform="matrix(3.753086, 0, 0, 3.71134, 45.115, 157.980326)" fill="none" stroke-linejoin="miter" d="M -0.00045794 0.000038564 L 75.939132 0.000038564 " stroke="#000000" stroke-width="1" stroke-opacity="1" stroke-miterlimit="4"/><path stroke-linecap="butt" transform="matrix(3.753086, 0, 0, 3.71134, 45.115, 216.952003)" fill="none" stroke-linejoin="miter" d="M -0.00045794 0.000302221 L 75.939132 0.000302221 " stroke="#000000" stroke-width="1" stroke-opacity="1" stroke-miterlimit="4"/></svg>